<svg width="323" height="341" viewBox="0 0 323 341" fill="none" xmlns="http://www.w3.org/2000/svg">
<g clip-path="url(#clip0_3949_1848)">
<path fill-rule="evenodd" clip-rule="evenodd" d="M304.785 23.318C328.595 53.467 310.17 100.272 311.328 140.301C312.438 178.675 334.997 224.474 311.42 252.665C287.008 281.855 240.806 252.125 206.868 265.209C175.432 277.328 158.681 323.063 125.42 324.373C89.9551 325.769 55.9251 301.998 32.9901 272.056C9.90798 241.923 -4.01433 201.103 1.02967 161.981C5.72387 125.573 36.4741 102.682 58.3941 75.022C76.4501 52.239 92.7121 28.058 117.454 15.073C143.506 1.39948 171.961 -0.966513 200.764 0.301287C236.986 1.89569 280.94 -6.87451 304.785 23.318Z" fill="#FFC735" fill-opacity="0.43"/>
<path d="M51.2351 244.465C51.2351 244.465 46.7634 240.128 42.1379 238.646C37.5124 237.163 32.1808 237.133 27.5733 235.741C22.9659 234.349 20.2141 233.177 20.2141 233.177L19.9788 237.784L51.045 247.069L72.299 240.559L74.417 235.781C72.101 236.974 69.672 237.878 67.176 238.475C62.55 239.687 57.372 239.687 54.503 240.909C51.633 242.131 51.2351 244.465 51.2351 244.465Z" fill="white" stroke="#263238" stroke-linecap="round" stroke-linejoin="round"/>
<path d="M19.5437 234.219C25.6163 236.274 31.8411 237.732 38.1454 238.576C42.8871 239.288 47.3895 241.313 51.2346 244.465C54.3621 242.253 57.9631 240.995 61.6711 240.819C66.1321 240.445 70.5331 239.453 74.7691 237.864L73.4391 240.869L50.61 245.817L19.073 236.703L19.5437 234.219Z" fill="white" stroke="#263238" stroke-linecap="round" stroke-linejoin="round"/>
<path d="M18.684 235.26C23.509 237.306 28.5648 238.611 33.7102 239.137C42.1104 239.838 50.9994 244.465 50.9994 244.465C54.438 242.546 58.212 241.48 62.061 241.34C66.38 241.299 70.677 240.656 74.851 239.427C74.721 239.907 74.689 240.412 74.756 240.908C74.823 241.403 74.989 241.875 75.24 242.292L50.9179 248.021L18.521 237.604L18.684 235.26Z" fill="white" stroke="#263238" stroke-linecap="round" stroke-linejoin="round"/>
<path d="M18.2862 237.173L49.9046 245.938V247.139L52.5661 247.22V245.837L75.9471 241.751C75.9471 241.751 76.9701 241.49 76.1011 242.752C75.2321 244.014 60.1781 258.558 60.1781 258.558L43.4687 260.461L18.1233 254.301L18.2862 237.173Z" fill="#FFC735"/>
<path opacity="0.3" d="M49.9056 247.16V245.938L18.2872 237.173L18.1333 254.361L43.4697 260.521L43.9223 260.471L50.6116 247.18L49.9056 247.16Z" fill="black"/>
<path d="M18.2862 237.173L49.9046 245.938V247.139L52.5661 247.22V245.837L75.9471 241.751C75.9471 241.751 76.9701 241.49 76.1011 242.752C75.2321 244.014 60.1781 258.558 60.1781 258.558L43.4687 260.461L18.1233 254.301L18.2862 237.173Z" stroke="#263238" stroke-linecap="round" stroke-linejoin="round"/>
<path d="M49.9044 247.16L42.9163 260.521L44.256 260.611L52.566 247.24L49.9044 247.16Z" fill="#FFC735" stroke="#263238" stroke-linecap="round" stroke-linejoin="round"/>
<path d="M48.7819 328.621C48.7819 328.621 47.2612 332.147 45.2335 333.759C43.2059 335.372 40.617 336.133 38.5713 337.686C37.4601 338.518 36.396 339.424 35.385 340.4L34.5703 337.335L48.275 326.888L59.635 328.411L61.391 331.336C60.122 330.86 58.801 330.577 57.463 330.494C55.028 330.304 52.502 331.005 50.9 330.574C50.4384 330.442 50.0089 330.199 49.6426 329.861C49.2764 329.523 48.9824 329.1 48.7819 328.621Z" fill="white" stroke="#263238" stroke-linecap="round" stroke-linejoin="round"/>
<path d="M34.8875 339.789C37.491 337.623 40.313 335.797 43.2967 334.35C45.6035 333.093 47.5149 331.097 48.7822 328.621C50.5176 329.622 52.4991 329.973 54.4301 329.623C56.7041 329.277 59.0131 329.351 61.2651 329.843L60.1511 327.97L48.2753 327.77L34.281 338.157L34.8875 339.789Z" fill="white" stroke="#263238" stroke-linecap="round" stroke-linejoin="round"/>
<path d="M34.308 339.208C36.289 337.231 38.5726 335.661 41.0516 334.571C45.0345 332.968 48.6734 328.651 48.6734 328.651C50.5385 329.458 52.5709 329.669 54.5389 329.262C56.6769 328.708 58.8839 328.563 61.0659 328.832C60.7919 328.21 60.7059 327.508 60.8209 326.828L48.0941 326.267L33.8735 337.656L34.308 339.208Z" fill="white" stroke="#263238" stroke-linecap="round" stroke-linejoin="round"/>
<path d="M33.7919 337.976L47.8767 327.8L47.6866 326.989L48.9811 326.568L49.1893 327.499L61.2099 327.099C61.2099 327.099 61.7439 327.099 61.1289 326.378C60.5129 325.656 50.9906 317.874 50.9906 317.874L42.5451 318.875L31.1216 326.438L33.7919 337.976Z" fill="#FFC735"/>
<path opacity="0.3" d="M47.7232 326.989L47.9132 327.8L33.8284 337.976L31.1309 326.408L42.5545 318.845L42.7808 318.815L48.0671 326.878L47.7232 326.989Z" fill="black"/>
<path d="M33.7919 337.976L47.8767 327.8L47.6866 326.989L48.9811 326.568L49.1893 327.499L61.2099 327.099C61.2099 327.099 61.7439 327.099 61.1289 326.378C60.5129 325.656 50.9906 317.874 50.9906 317.874L42.5451 318.875L31.1216 326.438L33.7919 337.976Z" stroke="#263238" stroke-linecap="round" stroke-linejoin="round"/>
<path d="M47.7229 326.988L42.2917 318.915L42.9254 318.675L49.0173 326.568L47.7229 326.988Z" fill="#FFC735" stroke="#263238" stroke-linecap="round" stroke-linejoin="round"/>
<path d="M259.384 220.807L284.947 249.453L230.364 266.471L226.752 237.754L259.384 220.807Z" fill="#FFC735" stroke="#263238" stroke-linecap="round" stroke-linejoin="round"/>
<path d="M282.005 253.59L225.548 271.95L230.101 238.936L258.588 224.873L282.005 253.59Z" fill="white" stroke="#263238" stroke-linecap="round" stroke-linejoin="round"/>
<path d="M259.928 226.656L280.928 256.705L227.956 273.722L234.111 237.604L259.928 226.656Z" fill="white"/>
<path opacity="0.17" d="M259.928 226.656L280.928 256.705L227.956 273.722L234.111 237.604L259.928 226.656Z" fill="black"/>
<path d="M259.928 226.656L280.928 256.705L227.956 273.722L234.111 237.604L259.928 226.656Z" stroke="#263238" stroke-linecap="round" stroke-linejoin="round"/>
<path d="M259.928 226.656L250.296 263.656L212.704 276.247L227.15 242.191L259.928 226.656Z" fill="white" stroke="#263238" stroke-linecap="round" stroke-linejoin="round"/>
<path d="M247.626 260.701L211.373 274.173L210.296 268.544L243.878 255.223L247.626 260.701Z" fill="white" stroke="#263238" stroke-linecap="round" stroke-linejoin="round"/>
<path d="M258.995 221.618L283.073 249.303L282.005 253.59L259.927 226.656L247.626 260.701L243.878 255.223L258.995 221.618Z" fill="white" stroke="#263238" stroke-linecap="round" stroke-linejoin="round"/>
<path d="M259.385 220.807L244.014 256.264L208.558 269.586L226.752 237.754L259.385 220.807Z" fill="#FFC735"/>
<path opacity="0.3" d="M259.385 220.807L244.014 256.264L208.558 269.586L226.752 237.754L259.385 220.807Z" fill="black"/>
<path d="M259.385 220.807L244.014 256.264L208.558 269.586L226.752 237.754L259.385 220.807Z" stroke="#263238" stroke-linecap="round" stroke-linejoin="round"/>
<path d="M225.286 241.02L253.809 226.616" stroke="#263238" stroke-linecap="round" stroke-linejoin="round"/>
<path d="M140.623 323.743L166.801 288.106L112.797 285.301L108.498 315.24L140.623 323.743Z" fill="#FFC735" stroke="#263238" stroke-linecap="round" stroke-linejoin="round"/>
<path d="M163.968 284.7L108.127 281.044L111.856 313.166L139.926 319.857L163.968 284.7Z" fill="white" stroke="#263238" stroke-linecap="round" stroke-linejoin="round"/>
<path d="M141.302 317.704L162.972 281.836L110.571 278.61L115.83 313.447L141.302 317.704Z" fill="white"/>
<path opacity="0.17" d="M141.302 317.704L162.972 281.836L110.571 278.61L115.83 313.447L141.302 317.704Z" fill="black"/>
<path d="M141.302 317.704L162.972 281.836L110.571 278.61L115.83 313.447L141.302 317.704Z" stroke="#263238" stroke-linecap="round" stroke-linejoin="round"/>
<path d="M141.302 317.704L132.603 282.887L95.427 280.093L109.005 310.652L141.302 317.704Z" fill="white" stroke="#263238" stroke-linecap="round" stroke-linejoin="round"/>
<path d="M129.86 286.583L94.0419 282.537L92.8379 288.496L125.995 293.094L129.86 286.583Z" fill="white" stroke="#263238" stroke-linecap="round" stroke-linejoin="round"/>
<path d="M140.243 323.032L164.927 288.747L163.968 284.7L141.302 317.704L129.86 286.583L125.995 293.094L140.243 323.032Z" fill="white" stroke="#263238" stroke-linecap="round" stroke-linejoin="round"/>
<path d="M140.623 323.743L126.149 292.012L91.127 287.905L108.498 315.24L140.623 323.743Z" fill="#FFC735"/>
<path opacity="0.3" d="M140.623 323.743L126.149 292.012L91.127 287.905L108.498 315.24L140.623 323.743Z" fill="black"/>
<path d="M140.623 323.743L126.149 292.012L91.127 287.905L108.498 315.24L140.623 323.743Z" stroke="#263238" stroke-linecap="round" stroke-linejoin="round"/>
<path d="M105.827 311.293L134.35 317.934" stroke="#263238" stroke-linecap="round" stroke-linejoin="round"/>
<path d="M161.85 84.106C161.85 84.106 149.992 90.446 145.249 98.129C140.506 105.811 141.891 119.994 149.195 124.581C156.5 129.169 182 146.016 199.986 143.612C217.972 141.208 215.202 120.865 206.114 112.772C197.026 104.679 184.77 97.468 184.77 97.468C184.77 97.468 184.181 93.1011 183.385 91.5681C182.588 90.0361 173.509 80.17 161.85 84.106Z" fill="#263238" stroke="#263238" stroke-linecap="round" stroke-linejoin="round"/>
<path d="M209.988 117.56C183.068 108.445 165.335 124.762 159.777 131.012C170.911 137.412 187.313 145.275 199.986 143.582C215.03 141.569 215.546 126.995 209.988 117.56Z" fill="white" stroke="#263238" stroke-linecap="round" stroke-linejoin="round"/>
<path d="M191.685 115.156C191.685 115.156 207.499 129.179 201.959 143.141" stroke="#263238" stroke-linecap="round" stroke-linejoin="round"/>
<path d="M139.781 77.996L133.445 110.699H138.541L151.105 84.927C151.105 84.927 148.652 76.664 139.781 77.996Z" fill="white" stroke="#263238" stroke-linecap="round" stroke-linejoin="round"/>
<path d="M219.42 62.13C214.234 55.119 207.381 48.619 194.826 47.507C194.826 47.507 184.127 47.136 169.571 53.987C158.193 59.336 146.036 71.015 139.781 78.026C145.376 79.599 148.707 82.133 151.114 84.957C153.595 82.343 155.758 80.069 157.351 78.637C162.71 73.819 170.576 69.753 170.576 69.753C170.576 69.753 162.04 82.704 160.366 86.039C158.691 89.375 159.868 94.743 168.73 96.226C177.591 97.708 179.773 95.855 183.285 93.631C186.797 91.408 191.151 89.375 192.826 89.375C196.172 89.637 199.494 88.572 202.195 86.37C206.539 83.034 208.386 73.599 209.889 72.858C210.921 72.347 220.054 85.528 227.169 95.424L227.784 95.074C230.88 93.311 233.297 89.715 234.954 86.55C229.197 77.245 222.779 66.678 219.42 62.13Z" fill="#FFC735" stroke="#263238" stroke-linecap="round" stroke-linejoin="round"/>
<path d="M189.431 53.7271C189.431 53.7271 185.883 63.172 192.989 66.748" stroke="#263238" stroke-linecap="round" stroke-linejoin="round"/>
<path d="M170.576 69.723L178.288 67.199" stroke="#263238" stroke-linecap="round" stroke-linejoin="round"/>
<path d="M170.477 86.199C170.477 86.199 175.337 90.947 186.716 85.578" stroke="#263238" stroke-linecap="round" stroke-linejoin="round"/>
<path d="M214.876 69.262C212.07 69.673 209.889 72.868 209.889 72.868C213.127 72.105 216.419 71.659 219.728 71.536" stroke="#263238" stroke-linecap="round" stroke-linejoin="round"/>
<path d="M170.83 70.5039C170.83 70.5039 176.053 70.5039 181.094 70.2939" stroke="#263238" stroke-linecap="round" stroke-linejoin="round"/>
<path d="M173.627 83.715C173.627 83.715 174.188 87.441 181.466 87.021" stroke="#263238" stroke-linecap="round" stroke-linejoin="round"/>
<path d="M192.989 50.652C192.989 50.652 191.821 57.3129 192.654 60.8279C193.487 64.3439 196.501 68.4209 198.682 64.1639C200.864 59.9069 202.023 55.1489 202.023 52.8759C202.023 50.6019 194.491 46.395 192.989 50.652Z" fill="white" stroke="#263238" stroke-linecap="round" stroke-linejoin="round"/>
<path d="M209.889 42.318C209.889 42.318 214.568 41.207 218.587 35.467C222.607 29.728 217.42 28.997 215.745 23.448C214.071 17.899 219.963 19.742 211.436 10.1164C202.91 0.490878 189.015 3.82628 182.47 6.97138C175.926 10.1164 176.134 20.673 171.436 21.415C166.738 22.156 164.737 17.158 159.053 17.158C153.368 17.158 147.34 23.819 149.684 29.368C152.029 34.917 156.545 32.523 156.88 31.591C157.215 30.66 154.536 31.781 154.364 28.997C154.192 26.212 160.384 27.705 162.23 31.411C163.724 34.416 160.981 38.683 161.071 41.838C161.262 48.168 168.268 52.214 172.767 53.086C178.84 54.258 186.227 53.847 191.73 50.512C198.492 46.405 195.351 37.891 200.33 35.668C205.308 33.444 207.861 36.78 207.861 36.78L209.889 42.318Z" fill="#263238" stroke="#263238" stroke-linecap="round" stroke-linejoin="round"/>
<path d="M158.754 20.593C157.892 20.179 156.944 20.035 156.013 20.179C155.082 20.322 154.204 20.746 153.477 21.405" stroke="white" stroke-linecap="round" stroke-linejoin="round"/>
<path d="M203.399 25.782C203.399 25.782 203.399 14.764 196.41 12.5203C189.422 10.2767 181.439 20.253 177.401 26.543C173.364 32.833 167.444 31.331 163.09 24.7C162.681 24.061 162.227 23.458 161.732 22.897" stroke="white" stroke-linecap="round" stroke-linejoin="round"/>
<path d="M163.796 46.445C167.417 49.019 170.133 49.761 175.446 47.918C180.76 46.075 180.108 36.499 184.761 31.351C189.413 26.202 197.741 28.035 197.741 28.035C197.741 28.035 188.427 22.506 181.104 28.396C173.781 34.286 174.441 44.232 167.788 46.075" stroke="white" stroke-linecap="round" stroke-linejoin="round"/>
<path d="M208.06 26.924C208.06 26.924 214.396 25.081 214.053 18.821" stroke="white" stroke-linecap="round" stroke-linejoin="round"/>
<path d="M155.921 97.898C155.921 97.898 173.12 100.302 181.809 106.913" stroke="white" stroke-linecap="round" stroke-linejoin="round"/>
<path d="M204.43 29.307C203.359 28.967 202.222 28.976 201.155 29.331C200.087 29.686 199.135 30.373 198.411 31.311C195.569 34.636 195.695 36.319 193.324 38.392C192.616 39.076 191.725 39.484 190.787 39.551C189.849 39.618 188.918 39.341 188.137 38.763C187.132 38.212 185.964 38.582 185.63 41.167C185.295 43.751 188.472 45.794 188.979 45.794C189.483 45.824 189.984 45.888 190.481 45.984C190.481 45.984 190.481 50.612 193.324 53.386C196.166 56.161 201.86 60.608 205.707 59.687C209.554 58.765 211.056 48.949 211.056 43.951C210.916 38.883 210.013 33.877 208.386 29.137C207.209 26.212 204.43 29.307 204.43 29.307Z" fill="white" stroke="#263238" stroke-linecap="round" stroke-linejoin="round"/>
<path d="M201.253 40.556C201.253 41.557 200.927 42.419 200.511 42.419C200.094 42.419 199.76 41.587 199.76 40.556C199.76 39.524 200.094 38.703 200.511 38.703C200.927 38.703 201.253 39.534 201.253 40.556Z" fill="#263238"/>
<path d="M207.218 39.935C207.218 40.936 206.883 41.798 206.476 41.798C206.069 41.798 205.725 40.966 205.725 39.935C205.725 38.903 206.06 38.082 206.476 38.082C206.893 38.082 207.218 38.913 207.218 39.935Z" fill="#263238"/>
<path d="M197.705 36.8C197.705 36.8 198.818 34.947 201.624 35.798" stroke="#263238" stroke-linecap="round" stroke-linejoin="round"/>
<path d="M204.793 35.798C204.793 35.798 206.657 33.524 208.341 35.798" stroke="#263238" stroke-linecap="round" stroke-linejoin="round"/>
<path d="M204.611 39.9351C204.611 39.9351 204.792 44.0711 205.915 44.0711C207.037 44.0711 206.657 45.9241 205.164 46.5451" stroke="#263238" stroke-linecap="round" stroke-linejoin="round"/>
<path d="M203.67 50.682C203.67 50.682 200.312 52.335 199.008 48.609" stroke="#263238" stroke-linecap="round" stroke-linejoin="round"/>
<path d="M204.457 142.11C204.457 142.11 185.448 123.66 165.751 117.38C146.054 111.1 123.388 114.054 103.7 108.155C84.0121 102.255 72.679 94.132 72.679 94.132L71.675 113.694L203.833 153.198L294.244 125.513L303.25 105.21C303.25 105.21 292.243 111.48 272.555 116.649C252.867 121.817 230.808 121.807 218.452 126.945C206.096 132.084 204.457 142.11 204.457 142.11Z" fill="white" stroke="#263238" stroke-linecap="round" stroke-linejoin="round"/>
<path d="M69.6741 98.549C69.6741 98.549 91.7251 113.323 141.402 118.492C174.125 121.887 204.458 142.11 204.458 142.11C217.749 132.706 233.051 127.357 248.812 126.605C274.836 125.503 304.527 114.054 304.527 114.054L298.869 126.945L201.787 147.979L67.6741 109.217L69.6741 98.549Z" fill="white" stroke="#263238" stroke-linecap="round" stroke-linejoin="round"/>
<path d="M66.0079 102.987C84.7759 112.366 104.863 118.099 125.389 119.934C161.081 122.889 203.453 142.08 203.453 142.08C203.453 142.08 225.802 128.798 250.523 128.798C268.884 128.625 287.153 125.896 304.898 120.675C304.346 122.715 304.209 124.866 304.497 126.971C304.785 129.077 305.491 131.086 306.563 132.855L203.118 157.244L65.3379 112.923L66.0079 102.987Z" fill="white" stroke="#263238" stroke-linecap="round" stroke-linejoin="round"/>
<path d="M66.6781 111.751L198.782 148.39V153.558L210.124 153.929V147.979L309.541 130.631C309.541 130.631 313.877 129.519 310.211 135.058C306.545 140.597 242.485 202.247 242.485 202.247L171.427 210.37L63.6641 184.198L64.3061 113.774C64.3081 113.455 64.3761 113.14 64.5041 112.854C64.6321 112.568 64.8181 112.318 65.0461 112.123C65.2751 111.928 65.5411 111.793 65.8231 111.728C66.1061 111.664 66.3981 111.672 66.6781 111.751Z" fill="#B4D51E"/>
<path opacity="0.3" d="M198.783 153.558V148.39L64.3341 111.11L63.6741 184.198L171.428 210.41L173.356 210.19L201.797 153.658L198.783 153.558Z" fill="black"/>
<path d="M66.6781 111.751L198.782 148.39V153.558L210.124 153.929V147.979L309.541 130.631C309.541 130.631 313.877 129.519 310.211 135.058C306.545 140.597 242.485 202.247 242.485 202.247L171.427 210.37L63.6641 184.198L64.3061 113.774C64.3081 113.455 64.3761 113.14 64.5041 112.854C64.6321 112.568 64.8181 112.318 65.0461 112.123C65.2751 111.928 65.5411 111.793 65.8231 111.728C66.1061 111.664 66.3981 111.672 66.6781 111.751Z" stroke="#263238" stroke-linecap="round" stroke-linejoin="round"/>
<path d="M198.782 153.558L169.092 210.41L174.767 210.771L210.124 153.929L198.782 153.558Z" fill="#B4D51E" stroke="#263238" stroke-linecap="round" stroke-linejoin="round"/>
<path d="M297.874 132.955C297.874 132.955 306.735 134.788 304.889 141.328L310.211 135.078C310.211 135.078 312.646 131.723 311.533 131.072C310.42 130.421 297.874 132.955 297.874 132.955Z" fill="#263238"/>
<path d="M78.925 115.467C78.925 115.467 66.388 119.303 64.441 129.67L64.333 113.774C64.333 113.774 64.713 111.38 66.695 111.771C68.678 112.161 78.925 115.467 78.925 115.467Z" fill="#263238"/>
<path d="M63.7911 179.33L70.0921 185.971L63.6741 184.198L63.7911 179.33Z" fill="#263238"/>
<path d="M237.95 202.718L246.495 198.07L241.996 202.387L237.95 202.718Z" fill="#263238"/>
<path d="M234.954 86.5599L258.996 118.452L252.94 119.513L227.169 95.4739C227.169 95.4739 233.84 90.6369 234.954 86.5599Z" fill="white" stroke="#263238" stroke-linecap="round" stroke-linejoin="round"/>
<path d="M128.34 107.774C128.34 107.774 127.136 106.162 126.828 107.604C126.52 109.046 123.796 114.054 125.923 114.405C128.05 114.756 129.254 109.036 129.254 109.036L128.34 107.774Z" fill="white" stroke="#263238" stroke-linecap="round" stroke-linejoin="round"/>
<path d="M131.218 107.584C131.218 107.584 130.005 105.971 129.706 107.404C129.408 108.836 126.674 113.854 128.801 114.215C130.929 114.575 132.141 108.836 132.141 108.836L131.218 107.584Z" fill="white" stroke="#263238" stroke-linecap="round" stroke-linejoin="round"/>
<path d="M134.106 107.464C134.106 107.464 132.667 105.671 132.295 107.263C131.924 108.856 128.675 114.425 131.218 114.826C133.762 115.226 135.174 108.816 135.174 108.816L134.106 107.464Z" fill="white" stroke="#263238" stroke-linecap="round" stroke-linejoin="round"/>
<path d="M136.622 108.065L141.474 113.233H135.726L136.622 108.065Z" fill="white" stroke="#263238" stroke-linecap="round" stroke-linejoin="round"/>
<path d="M136.622 108.065C136.622 108.065 135.183 106.272 134.812 107.864C134.441 109.457 131.191 115.026 133.735 115.417C136.278 115.807 137.691 109.407 137.691 109.407L136.622 108.065Z" fill="white" stroke="#263238" stroke-linecap="round" stroke-linejoin="round"/>
<path d="M265.522 112.702C265.522 112.702 266.491 110.899 266.998 112.262C267.504 113.624 270.899 118.111 268.862 118.832C266.826 119.553 264.807 114.104 264.807 114.104L265.522 112.702Z" fill="white" stroke="#263238" stroke-linecap="round" stroke-linejoin="round"/>
<path d="M262.68 113.003C262.68 113.003 263.648 111.2 264.155 112.562C264.662 113.924 268.065 118.411 266.02 119.133C263.974 119.854 261.964 114.405 261.964 114.405L262.68 113.003Z" fill="white" stroke="#263238" stroke-linecap="round" stroke-linejoin="round"/>
<path d="M259.819 113.393C259.819 113.393 260.987 111.39 261.566 112.883C262.145 114.375 266.092 119.333 263.702 120.164C261.313 120.996 258.95 114.956 258.95 114.956L259.819 113.393Z" fill="white" stroke="#263238" stroke-linecap="round" stroke-linejoin="round"/>
<path d="M257.42 114.425L253.356 120.375L259.041 119.373L257.42 114.425Z" fill="white" stroke="#263238" stroke-linecap="round" stroke-linejoin="round"/>
<path d="M257.42 114.425C257.42 114.425 258.579 112.422 259.167 113.914C259.756 115.407 263.693 120.355 261.304 121.186C258.914 122.017 256.551 115.988 256.551 115.988L257.42 114.425Z" fill="white" stroke="#263238" stroke-linecap="round" stroke-linejoin="round"/>
<path d="M92.512 167.921L98.305 166.92L92.512 165.918C92.002 165.833 91.53 165.569 91.165 165.165C90.8 164.761 90.562 164.239 90.484 163.675L89.579 157.254L88.674 163.675C88.597 164.238 88.36 164.759 87.997 165.162C87.634 165.566 87.164 165.831 86.655 165.918L80.853 166.92L86.655 167.921C87.162 168.013 87.63 168.28 87.992 168.682C88.355 169.085 88.593 169.604 88.674 170.165L89.579 176.585L90.484 170.165C90.566 169.602 90.805 169.083 91.169 168.68C91.534 168.277 92.003 168.011 92.512 167.921Z" fill="white"/>
<path d="M49.2344 211.412L55.0369 210.41L49.2344 209.408C48.7265 209.317 48.2574 209.051 47.8935 208.649C47.5296 208.246 47.2893 207.727 47.2068 207.165L46.3016 200.745L45.3964 207.165C45.3178 207.729 45.0788 208.25 44.7142 208.654C44.3496 209.057 43.8783 209.321 43.3687 209.408L37.5664 210.41L43.3687 211.412C43.8783 211.499 44.3496 211.763 44.7142 212.167C45.0788 212.57 45.3178 213.092 45.3964 213.655L46.3016 220.076L47.2068 213.655C47.2893 213.093 47.5296 212.574 47.8935 212.172C48.2574 211.769 48.7265 211.503 49.2344 211.412Z" fill="#463C74"/>
<path opacity="0.5" d="M49.2344 211.412L55.0369 210.41L49.2344 209.408C48.7265 209.317 48.2574 209.051 47.8935 208.649C47.5296 208.246 47.2893 207.727 47.2068 207.165L46.3016 200.745L45.3964 207.165C45.3178 207.729 45.0788 208.25 44.7142 208.654C44.3496 209.057 43.8783 209.321 43.3687 209.408L37.5664 210.41L43.3687 211.412C43.8783 211.499 44.3496 211.763 44.7142 212.167C45.0788 212.57 45.3178 213.092 45.3964 213.655L46.3016 220.076L47.2068 213.655C47.2893 213.093 47.5296 212.574 47.8935 212.172C48.2574 211.769 48.7265 211.503 49.2344 211.412Z" fill="white"/>
<path d="M193.703 238.185L199.506 237.183L193.703 236.182C193.195 236.095 192.725 235.832 192.36 235.431C191.996 235.029 191.756 234.51 191.676 233.948L190.771 227.528L189.865 233.948C189.785 234.51 189.545 235.029 189.181 235.431C188.816 235.832 188.346 236.095 187.838 236.182L182.035 237.183L187.838 238.185C188.346 238.271 188.816 238.534 189.181 238.936C189.545 239.337 189.785 239.857 189.865 240.419L190.771 246.839L191.676 240.419C191.756 239.857 191.996 239.337 192.36 238.936C192.725 238.534 193.195 238.271 193.703 238.185Z" fill="#463C74"/>
<path opacity="0.5" d="M193.703 238.185L199.506 237.183L193.703 236.182C193.195 236.095 192.725 235.832 192.36 235.431C191.996 235.029 191.756 234.51 191.676 233.948L190.771 227.528L189.865 233.948C189.785 234.51 189.545 235.029 189.181 235.431C188.816 235.832 188.346 236.095 187.838 236.182L182.035 237.183L187.838 238.185C188.346 238.271 188.816 238.534 189.181 238.936C189.545 239.337 189.785 239.857 189.865 240.419L190.771 246.839L191.676 240.419C191.756 239.857 191.996 239.337 192.36 238.936C192.725 238.534 193.195 238.271 193.703 238.185Z" fill="white"/>
<path d="M41.8121 177.257L45.6501 176.585L41.8121 175.914C41.4753 175.857 41.1639 175.682 40.923 175.416C40.6821 175.149 40.5242 174.805 40.4724 174.432L39.8749 170.195L39.2685 174.432C39.2166 174.805 39.0588 175.149 38.8179 175.416C38.5769 175.682 38.2655 175.857 37.9288 175.914L34.0908 176.585L37.9288 177.257C38.2655 177.314 38.5769 177.489 38.8179 177.755C39.0588 178.022 39.2166 178.366 39.2685 178.739L39.8749 182.976L40.4724 178.739C40.5242 178.366 40.6821 178.022 40.923 177.755C41.1639 177.489 41.4753 177.314 41.8121 177.257Z" fill="#463C74"/>
<path opacity="0.5" d="M41.8121 177.257L45.6501 176.585L41.8121 175.914C41.4753 175.857 41.1639 175.682 40.923 175.416C40.6821 175.149 40.5242 174.805 40.4724 174.432L39.8749 170.195L39.2685 174.432C39.2166 174.805 39.0588 175.149 38.8179 175.416C38.5769 175.682 38.2655 175.857 37.9288 175.914L34.0908 176.585L37.9288 177.257C38.2655 177.314 38.5769 177.489 38.8179 177.755C39.0588 178.022 39.2166 178.366 39.2685 178.739L39.8749 182.976L40.4724 178.739C40.5242 178.366 40.6821 178.022 40.923 177.755C41.1639 177.489 41.4753 177.314 41.8121 177.257Z" fill="white"/>
<path d="M290.795 186.632L294.633 185.971L290.795 185.3C290.458 185.241 290.148 185.066 289.907 184.799C289.666 184.533 289.508 184.189 289.455 183.817L288.848 179.57L288.251 183.817C288.198 184.189 288.04 184.533 287.799 184.799C287.558 185.066 287.248 185.241 286.911 185.3L283.073 185.971L286.911 186.632C287.248 186.691 287.558 186.866 287.799 187.132C288.04 187.398 288.198 187.742 288.251 188.114L288.848 192.361L289.455 188.114C289.508 187.742 289.666 187.398 289.907 187.132C290.148 186.866 290.458 186.691 290.795 186.632Z" fill="#463C74"/>
<path opacity="0.5" d="M290.795 186.632L294.633 185.971L290.795 185.3C290.458 185.241 290.148 185.066 289.907 184.799C289.666 184.533 289.508 184.189 289.455 183.817L288.848 179.57L288.251 183.817C288.198 184.189 288.04 184.533 287.799 184.799C287.558 185.066 287.248 185.241 286.911 185.3L283.073 185.971L286.911 186.632C287.248 186.691 287.558 186.866 287.799 187.132C288.04 187.398 288.198 187.742 288.251 188.114L288.848 192.361L289.455 188.114C289.508 187.742 289.666 187.398 289.907 187.132C290.148 186.866 290.458 186.691 290.795 186.632Z" fill="white"/>
<path d="M115.395 151.335L119.152 150.684L115.395 150.033C115.066 149.975 114.761 149.804 114.525 149.543C114.289 149.282 114.134 148.945 114.083 148.58L113.485 144.413L112.897 148.58C112.844 148.944 112.689 149.281 112.453 149.541C112.217 149.802 111.913 149.974 111.584 150.033L107.819 150.684L111.584 151.335C111.913 151.393 112.217 151.565 112.453 151.826C112.689 152.087 112.844 152.423 112.897 152.787L113.449 156.994L114.046 152.827C114.093 152.449 114.25 152.099 114.493 151.829C114.737 151.56 115.054 151.386 115.395 151.335Z" fill="white"/>
<path d="M239.85 192.461L243.616 191.8L239.85 191.149C239.521 191.09 239.217 190.919 238.982 190.658C238.746 190.397 238.591 190.061 238.538 189.697L237.949 185.53L237.361 189.697C237.308 190.061 237.153 190.397 236.917 190.658C236.682 190.919 236.378 191.09 236.049 191.149L232.283 191.8L236.049 192.461C236.378 192.518 236.683 192.69 236.919 192.951C237.155 193.212 237.31 193.549 237.361 193.913L237.949 198.07L238.538 193.913C238.589 193.549 238.744 193.212 238.98 192.951C239.216 192.69 239.521 192.518 239.85 192.461Z" fill="white"/>
</g>
<defs>
<clipPath id="clip0_3949_1848">
<rect width="322.13" height="340.9" fill="white"/>
</clipPath>
</defs>
</svg>
